<svg class="svg-icon" style="width: 1em; height: 1em;vertical-align: middle;fill: currentColor;overflow: hidden;" viewBox="0 0 1024 1024" version="1.1" xmlns="http://www.w3.org/2000/svg"><path d="M794.848 507.264c-0.672-2.656-2.016-5.056-3.776-7.04l-279.104-465.472-39.872 66.464 0.064 0-240.8 401.536c-0.608 0.992-1.088 2.016-1.44 3.104-27.52 48.64-42.08 103.616-42.08 159.232 0 178.72 145.408 324.128 324.16 324.128s324.128-145.408 324.128-324.128c0-55.072-14.272-109.504-41.28-157.824zM512.032 955.104c-159.904 0-290.048-130.112-290.048-290.016 0-50.688 13.536-100.832 39.104-144.992 0.48-0.832 0.864-1.664 1.184-2.528l249.696-416.416 249.664 416.352c0.32 0.896 0.736 1.76 1.248 2.592 25.6 44.16 39.104 94.304 39.104 144.992 0 159.936-130.112 290.016-290.016 290.016z"  /></svg>