<svg width="256" height="256" viewBox="0 0 256 256" fill="none" xmlns="http://www.w3.org/2000/svg">
<mask id="mask0_171_52" style="mask-type:alpha" maskUnits="userSpaceOnUse" x="0" y="0" width="256" height="256">
<rect width="256" height="256" fill="white"/>
</mask>
<g mask="url(#mask0_171_52)">
<path d="M44.8379 46.9988C44.608 47.4534 44.6038 48.3649 44.6574 49.1056L44.7657 50.3594L81.5673 87.4965L118.369 124.634L117.908 125.885C117.158 127.875 117.141 131.635 118.042 133.804C119.113 136.486 121.721 139.232 124.393 140.212C126.782 141.135 129.629 141.262 132.253 140.476C134.022 139.971 134.593 139.518 136.482 137.647C138.427 135.719 138.772 135.151 139.349 133.444C140.158 130.828 140.057 127.979 139.157 125.582C138.143 122.957 135.478 120.268 132.806 119.174C130.702 118.31 126.886 118.235 124.889 118.967L123.633 119.417L86.775 82.2224L49.9167 45.028L48.4362 44.9074C46.8984 44.8435 45.3565 45.6909 44.8379 46.9988Z" fill="black"/>
<path d="M105.19 53.8805C105.186 54.792 108.431 67.6807 112.295 82.4521C119.855 111.026 119.855 111.14 122.303 111.322C124.638 111.503 126.297 110.087 126.534 107.923C126.597 106.727 113.273 55.2844 112.146 52.545C111.527 50.8902 110.277 50.087 108.51 50.2499C106.402 50.4112 105.2 51.7159 105.19 53.8805Z" fill="black"/>
<path d="M73.1855 114.289C72.7246 115.426 73.172 117.251 74.25 118.224C74.8737 118.854 79.4246 120.242 90.2915 123.196C98.655 125.456 106.052 127.312 106.792 127.373C107.874 127.434 108.388 127.152 109.304 126.245C110.277 125.281 110.449 124.883 110.341 123.629C110.126 120.78 109.785 120.664 93.2289 116.089C84.8653 113.829 77.5256 111.916 76.842 111.913C75.4749 111.907 73.7608 113.038 73.1855 114.289Z" fill="black"/>
<path d="M49.3915 148.304C48.412 150.749 50.2801 153.321 52.8438 153.276C54.2681 153.225 105.369 139.899 107.823 138.942C109.421 138.266 110.281 137.074 110.232 135.307C110.182 133.769 108.765 132.111 107.115 131.818C105.692 131.527 51.9098 145.695 50.5947 146.772C50.1369 147.225 49.5642 147.906 49.3915 148.304Z" fill="black"/>
<path d="M137.701 82.2253C136.774 85.7529 134.805 92.8076 133.358 97.9848C131.156 106.064 130.865 107.487 131.315 108.742C132.214 111.594 135.286 112.292 137.29 110.193C138.149 109.229 139.015 106.555 142.491 93.6969C145.04 84.4802 146.607 77.9364 146.497 77.1384C146.111 74.3453 142.984 73.1349 140.64 74.8902C139.554 75.7397 139.266 76.4789 137.701 82.2253Z" fill="black"/>
<path d="M60.4132 192.273C59.6101 193.523 59.8863 195.404 61.2478 196.664C62.6087 198.037 63.9181 198.214 65.6884 197.253C66.4879 196.801 74.9563 188.523 91.3795 172.135C114.612 148.998 115.872 147.637 116.105 146.499C116.63 143.71 113.793 141.304 111.224 142.375C110.083 142.826 106.364 146.397 85.4203 167.265C71.9159 180.648 60.6999 191.876 60.4132 192.273Z" fill="black"/>
<path d="M141.495 112.377C140.285 115.504 143.803 118.482 146.773 116.787C147.629 116.392 155.869 108.341 172.578 91.6687C196.955 67.3984 197.127 67.2283 197.304 65.9189C197.656 63.528 195.558 61.4108 193.164 61.7417C191.911 61.8499 191.682 62.0767 166.905 86.5161C145.733 107.383 141.899 111.296 141.495 112.377Z" fill="black"/>
<path d="M119.393 150.045C118.704 151.295 110.94 180.198 110.876 181.736C110.813 182.932 111.096 183.446 112.003 184.361C113.534 185.906 115.414 185.858 116.959 184.327C117.932 183.363 118.625 181.201 122.159 168.286C124.36 160.093 126.217 152.696 126.221 151.785C126.295 147.969 121.231 146.75 119.393 150.045Z" fill="black"/>
<path d="M147.374 122.429C146.509 124.647 147.979 127.16 150.313 127.455C150.94 127.515 163.086 124.551 178.77 120.464C202.724 114.193 206.146 113.183 207.176 112.276C208.721 110.745 208.73 108.808 207.199 107.263C206.348 106.405 205.78 106.174 204.64 106.169C202.532 106.217 149.948 120.105 148.748 120.954C148.177 121.294 147.604 121.975 147.374 122.429Z" fill="black"/>
<path d="M131.472 149.643C131.128 149.984 130.954 150.837 130.893 151.578C130.831 152.774 143.931 203.418 145.226 206.671C146.296 209.353 148.743 210.104 151.029 208.406C152.001 207.67 152.173 207.272 152.236 205.962C152.24 205.05 149.221 192.618 145.189 177.334C137.572 148.475 137.628 148.646 135.01 148.292C133.7 148.115 132.159 148.735 131.472 149.643Z" fill="black"/>
<path d="M147.199 135.873C147.414 138.722 147.756 138.838 164.312 143.413C172.675 145.673 180.015 147.586 180.585 147.588C182.863 147.713 184.752 145.5 184.307 143.219C183.862 140.938 183.009 140.536 167.022 136.191C158.658 133.931 151.204 132.018 150.521 132.015C149.666 132.068 148.981 132.406 148.18 133.2C147.207 134.164 147.091 134.619 147.199 135.873Z" fill="black"/>
<path d="M141.234 144.959C140.598 146.95 140.655 147.007 154.548 160.913L167.534 173.903L168.902 173.795C170.782 173.633 172.27 172.158 172.449 170.279L172.57 168.913L159.301 155.523C146.202 142.304 146.032 142.133 144.949 142.185C143.582 142.178 141.638 143.651 141.234 144.959Z" fill="black"/>
<path d="M-0.00986212 5.05289L0.496876 4.49785C0.496876 4.49785 5.35232 -0.0580657 5.19292 -2.50947e-08C5.03352 0.0580657 50.3267 45.522 50.3267 45.522L45.0916 50.7097L-0.00986212 5.05289Z" fill="black"/>
</g>
<rect x="25" y="256" width="25" height="231" transform="rotate(-90 25 256)" fill="black"/>
<rect x="231" width="25" height="231" fill="black"/>
<path d="M141 25L118 -4.17232e-07H256V25H141Z" fill="black"/>
<rect y="210" width="25" height="46" fill="black"/>
<path d="M0 0H5.19169L4 3L0 5.05859V0Z" fill="black"/>
</svg>
